<svg xmlns="http://www.w3.org/2000/svg" xmlns:xlink="http://www.w3.org/1999/xlink" viewBox="0 0 62.18 62.18"><defs><style>.cls-1{fill:url(#linear-gradient);}.cls-2{fill:#fff;}</style><linearGradient id="linear-gradient" x1="-294" y1="-7102.37" x2="-231.82" y2="-7102.37" gradientTransform="matrix(1, 0, 0, -1, 294, -7071.28)" gradientUnits="userSpaceOnUse"><stop offset="0" stop-color="#9e005d"/><stop offset="1" stop-color="#ed1e79"/></linearGradient></defs><g id="Layer_2" data-name="Layer 2"><g id="Layer_1-2" data-name="Layer 1"><circle class="cls-1" cx="31.09" cy="31.09" r="31.09"/><path class="cls-2" d="M30.73,49.2,30,48.55c-1.59-1.68-5.2-5.43-13.31-13.64L20,32.07c.9,1,2.84,3,6.72,7.11.49.52.55.58.55.65l3.67,3.62L43,33c1,.9,2.22,2.13,3.12,3Zm.91-16.87L31,31.68C29.36,30,25.75,26.25,17.64,18l3.19-2.78,7.35,7.63,3.67,3.69L43.91,16.17c1,.91,2.22,2.13,3.12,3Z"/></g></g></svg>