<svg xmlns="http://www.w3.org/2000/svg" viewBox="0 0 1099.84 408.15"><defs><style>.cls-1{font-size:33px;}.cls-1,.cls-10,.cls-11,.cls-12,.cls-13,.cls-14,.cls-2,.cls-3,.cls-4,.cls-5,.cls-6,.cls-7,.cls-8,.cls-9{fill:#fff;}.cls-1,.cls-10,.cls-11,.cls-12,.cls-13,.cls-2,.cls-3,.cls-4,.cls-5,.cls-6,.cls-7,.cls-8,.cls-9{font-family:KanYaMaKanLight-Light, Kan Ya Ma Kan Light;font-weight:300;}.cls-2{font-size:34.04px;}.cls-3{font-size:32.23px;}.cls-4{font-size:30.72px;}.cls-5{font-size:28.79px;}.cls-6{font-size:30.44px;}.cls-7{font-size:30.64px;}.cls-8{font-size:30.82px;}.cls-9{font-size:31.8px;}.cls-10{font-size:32.52px;}.cls-11{font-size:32.66px;}.cls-12{font-size:29.27px;}.cls-13{font-size:33.29px;}</style></defs><g id="Layer_2" data-name="Layer 2"><g id="Layer_1-2" data-name="Layer 1"><text class="cls-1" transform="translate(1051.99 86.39) scale(0.93 1)">ةعــبر</text><text class="cls-2" transform="translate(1051.98 112.64) scale(0.93 1)">ةنلــف</text><text class="cls-3" transform="translate(1051.74 132.41) scale(0.93 1)">ميرــم</text><text class="cls-4" transform="translate(1051.99 159.03) scale(0.93 1)">ةنلـــف</text><text class="cls-4" transform="translate(1051.54 181.64) scale(0.93 1)">ةنلـــف</text><text class="cls-4" transform="translate(1051.54 249.76) scale(0.93 1)">ةنلـــف</text><text class="cls-4" transform="translate(1051.54 274.24) scale(0.93 1)">ةنلـــف</text><text class="cls-5" transform="translate(1051.74 294.97) scale(0.93 1)">ةمطاف</text><text class="cls-5" transform="translate(1052.92 318.21) scale(0.93 1)">ةـــــــيا</text><text class="cls-5" transform="translate(998.9 294.97) scale(0.93 1)">ةزياـــف</text><text class="cls-5" transform="translate(996.85 318.21) scale(0.93 1)">ماـمـــت</text><text class="cls-5" transform="translate(945.15 294.97) scale(0.93 1)">ةيفطـل</text><text class="cls-5" transform="translate(945.46 318.21) scale(0.93 1)">ةيقوط</text><text class="cls-5" transform="translate(891.35 294.97) scale(0.93 1)">ةــنـــما</text><text class="cls-5" transform="translate(891.66 318.21) scale(0.93 1)">ةلماـك</text><text class="cls-5" transform="translate(838.66 294.97) scale(0.93 1)">ةمعــن</text><text class="cls-5" transform="translate(838.97 318.21) scale(0.93 1)">ايــلـــع</text><text class="cls-5" transform="translate(782.99 318.21) scale(0.93 1)">يمـيـم</text><text class="cls-6" transform="translate(889.99 251.43) scale(0.93 1)">ةمطاف</text><text class="cls-5" transform="translate(890.49 274.24) scale(0.93 1)">ةميهـف</text><text class="cls-6" transform="translate(889.02 202.04) scale(0.93 1)">ةفيرـظ</text><text class="cls-6" transform="translate(889.02 177.85) scale(0.93 1)">ةشياـع</text><text class="cls-6" transform="translate(889.02 152.14) scale(0.93 1)">ةيجــس</text><text class="cls-6" transform="translate(889.02 130.59) scale(0.93 1)">ةمطاف</text><text class="cls-6" transform="translate(858.9 152.14) scale(0.93 1)">ـياـن</text><text class="cls-6" transform="translate(831.63 130.59) scale(0.93 1)">قفــش</text><text class="cls-6" transform="translate(774.01 152.14) scale(0.93 1)">ةسيــنا</text><text class="cls-6" transform="translate(774.01 130.59) scale(0.93 1)">ةفيطـل</text><text class="cls-6" transform="translate(716.47 153.32) scale(0.93 1)">ةفيـطل</text><text class="cls-7" transform="translate(716.47 129.47) scale(0.93 1)">ةيزوــف</text><text class="cls-6" transform="translate(659.91 153.32) scale(0.93 1)">ةميمــت</text><text class="cls-7" transform="translate(659.91 129.47) scale(0.93 1)">ةنلــــف</text><text class="cls-8" transform="translate(604.39 153.42) scale(0.93 1)">ةــلازــغ</text><text class="cls-7" transform="translate(603.95 129.47) scale(0.93 1)">داعــس</text><text class="cls-8" transform="translate(604.16 104.24) scale(0.93 1)">ةنلـــــف</text><text class="cls-9" transform="translate(603.92 80.59) scale(0.93 1)">داعــس</text><text class="cls-9" transform="translate(603.92 53.98) scale(0.93 1)">ةريمس</text><text class="cls-10" transform="translate(603.33 27.64) scale(0.93 1)">ةجيدخ</text><text class="cls-9" transform="translate(721.88 27.64) scale(0.93 1)">ةريمس</text><text class="cls-9" transform="translate(721.88 53.98) scale(0.93 1)">دامتـعا</text><text class="cls-9" transform="translate(780.83 28.82) scale(0.93 1)">مامــــت</text><text class="cls-9" transform="translate(783.24 294.97) scale(0.93 1)">مامـــت</text><text class="cls-5" transform="translate(729.24 318.21) scale(0.93 1)">ةنلــــف</text><text class="cls-9" transform="translate(728.31 294.97) scale(0.93 1)">ةلبــــع</text><text class="cls-5" transform="translate(673.82 294.97) scale(0.93 1)">ةنلــــف</text><text class="cls-9" transform="translate(672.79 318.21) scale(0.93 1)">ماتـــخ</text><text class="cls-5" transform="translate(615.81 293.97) scale(0.93 1)">ةـلوـــخ</text><text class="cls-9" transform="translate(616.77 318.21) scale(0.93 1)">ةلاـــه</text><text class="cls-5" transform="translate(551.3 293.97) scale(0.93 1)">ةراــــــس</text><text class="cls-9" transform="translate(553.09 318.21) scale(0.93 1)">تلامج</text><text class="cls-5" transform="translate(502.16 293.97) scale(0.93 1)">ةروـــن</text><text class="cls-9" transform="translate(502.85 318.21) scale(0.93 1)">ةـيدان</text><text class="cls-5" transform="translate(499.53 246.88) scale(0.93 1)">ةلمــج</text><text class="cls-9" transform="translate(500.29 271.12) scale(0.93 1)">ةمامي</text><text class="cls-5" transform="translate(500.79 198.01) scale(0.93 1)">ةسيـنا</text><text class="cls-9" transform="translate(501.96 222.26) scale(0.93 1)">ايراــم</text><text class="cls-5" transform="translate(500.77 148.35) scale(0.93 1)">ماعـنا</text><text class="cls-9" transform="translate(499.97 172.59) scale(0.93 1)">ةيزوف</text><text class="cls-5" transform="translate(500.79 99.48) scale(0.93 1)">ةسيـنا</text><text class="cls-9" transform="translate(499.94 123.73) scale(0.93 1)">ةنـيدر</text><text class="cls-5" transform="translate(439.48 293.97) scale(0.93 1)">اـــيداــن</text><text class="cls-5" transform="translate(438.32 271.12) scale(0.93 1)">ماسـتبا</text><text class="cls-9" transform="translate(439.32 318.21) scale(0.93 1)">ارــيـــف</text><text class="cls-5" transform="translate(438.15 246.88) scale(0.93 1)">لـــــــما</text><text class="cls-9" transform="translate(301.5 316.16) scale(0.93 1)">ناهمـــسا</text><text class="cls-9" transform="translate(302.39 290.38) scale(0.93 1)">انيطسبس</text><text class="cls-9" transform="translate(253.2 315.86) scale(0.93 1)">ةرسم</text><text class="cls-9" transform="translate(255.22 290.08) scale(0.93 1)">لاوـــن</text><text class="cls-9" transform="translate(253.15 260.77) scale(0.93 1)">داعس</text><text class="cls-9" transform="translate(253.71 231.57) scale(0.93 1)">جاهتبا</text><text class="cls-9" transform="translate(254.95 207.18) scale(0.93 1)">باـحر</text><text class="cls-9" transform="translate(253.56 177.85) scale(0.93 1)">ريهـس</text><text class="cls-9" transform="translate(251.9 150.51) scale(0.93 1)">ةريــما</text><text class="cls-9" transform="translate(241.43 125.73) scale(0.93 1)">ةيمكح</text><text class="cls-9" transform="translate(243.71 101.2) scale(0.93 1)">ماهــس</text><text class="cls-9" transform="translate(185.26 125.73) scale(0.93 1)">ماتـــخ</text><text class="cls-9" transform="translate(186.59 101.2) scale(0.93 1)">ةميلس</text><text class="cls-9" transform="translate(131.33 101.2) scale(0.93 1)">ىرـسي</text><text class="cls-9" transform="translate(131.33 125.73) scale(0.93 1)">لاــــثم</text><text class="cls-9" transform="translate(131.33 153.67) scale(0.93 1)">ىلــــيل</text><text class="cls-9" transform="translate(131.33 181.77) scale(0.93 1)">ةجيدخ</text><text class="cls-9" transform="translate(131.33 207.18) scale(0.93 1)">اــــيدان</text><text class="cls-9" transform="translate(131.33 231.57) scale(0.93 1)">لاــيرف</text><text class="cls-9" transform="translate(132.33 262.85) scale(0.93 1)">رـــمس</text><text class="cls-9" transform="translate(124.12 290.37) scale(0.93 1)">لـــــــما</text><text class="cls-9" transform="translate(117.63 318.21) scale(0.93 1)">نولسيم</text><text class="cls-9" transform="translate(61.07 290.37) scale(0.93 1)">ةفــــيان</text><text class="cls-9" transform="translate(62.59 318.21) scale(0.93 1)">ةرـــيما</text><text class="cls-9" transform="translate(3 290.37) scale(0.93 1)">ةفــــيان</text><text class="cls-9" transform="translate(4.52 318.21) scale(0.93 1)">ةرـــيما</text><text class="cls-9" transform="translate(1 232.95) scale(0.93 1)">ةـــــقفر</text><text class="cls-9" transform="translate(0 207.18) scale(0.93 1)">نيرـــيش</text><text class="cls-9" transform="translate(0.98 181.64) scale(0.93 1)">لادــــتعا</text><text class="cls-9" transform="translate(0.98 153.4) scale(0.93 1)">حاــــــجن</text><text class="cls-9" transform="translate(0.98 125.73) scale(0.93 1)">ىوــــلس</text><text class="cls-9" transform="translate(0.98 101.2) scale(0.93 1)">ةيـــــمس</text><text class="cls-9" transform="translate(1.52 260.8) scale(0.93 1)">ةـــــيدان</text><text class="cls-5" transform="translate(439.32 198.01) scale(0.93 1)">ةارــــما</text><text class="cls-11" transform="translate(439.04 221.48) scale(0.93 1)">ةـــــيار</text><text class="cls-5" transform="translate(439.48 145.35) scale(0.93 1)">هيــــفو</text><text class="cls-9" transform="translate(439.86 171.59) scale(0.93 1)">صلخا</text><text class="cls-5" transform="translate(437.58 100.04) scale(0.93 1)">صلــخا</text><text class="cls-9" transform="translate(437.34 123.73) scale(0.93 1)">ميرـــم</text><text class="cls-5" transform="translate(383.43 293.97) scale(0.93 1)">ةـنزـــخ</text><text class="cls-5" transform="translate(383.4 271.58) rotate(-1.09) scale(0.93 1)">ةلماـك</text><text class="cls-9" transform="translate(383.43 318.21) scale(0.93 1)">دـنــه</text><text class="cls-5" transform="translate(383.96 246.88) scale(0.93 1)">ةدوــع</text><text class="cls-5" transform="translate(381.05 198.01) scale(0.93 1)">ناـجشأ</text><text class="cls-9" transform="translate(382.42 222.76) rotate(-1.09) scale(0.93 1)">ىولس</text><text class="cls-5" transform="translate(382.45 148.35) scale(0.93 1)">ةيردــق</text><text class="cls-9" transform="translate(382.45 171.59) scale(0.93 1)">نـيداـن</text><text class="cls-5" transform="translate(381.05 99.48) scale(0.93 1)">ةلــــجـن</text><text class="cls-9" transform="translate(382.45 123.73) scale(0.93 1)">ةنـيـدر</text><text class="cls-9" transform="translate(782.01 55.16) scale(0.93 1)">ةعيدو</text><text class="cls-10" transform="translate(660.56 27.64) scale(0.93 1)">ةينسح</text><text class="cls-10" transform="translate(660.56 53.98) scale(0.93 1)">ةفيفـع</text><text class="cls-5" transform="translate(890.49 224.85) scale(0.93 1)">ةقورش</text><text class="cls-12" transform="translate(1051.99 202.04) scale(0.93 1)">ةنسـح</text><text class="cls-13" transform="translate(1053.01 222.26) scale(0.93 1)">رـســي</text><polygon class="cls-14" points="94.08 379.89 120.43 408.15 146.79 379.89 120.43 351.63 94.08 379.89"/><polygon class="cls-14" points="26.41 379.89 52.76 408.15 79.83 379.89 52.76 351.63 26.41 379.89"/><polygon class="cls-14" points="479.78 32.48 453.43 3.45 427.07 32.48 453.43 60.74 479.78 32.48"/><polygon class="cls-14" points="986.22 369.69 1012.58 397.95 1038.93 369.69 1012.58 341.43 986.22 369.69"/></g></g></svg>