<svg xmlns="http://www.w3.org/2000/svg" viewBox="0 0 62.18 62.18"><defs><style>.cls-1{fill:#f6f6f6;}.cls-2{fill:#3c3c3b;}</style></defs><g id="Layer_2" data-name="Layer 2"><g id="Layer_1-2" data-name="Layer 1"><circle class="cls-1" cx="31.09" cy="31.09" r="31.09"/><path class="cls-2" d="M37.21,32.81l2.5,2.38L37,37.91l-2.41-2.47a13.34,13.34,0,0,1-10.91,2.38,12.8,12.8,0,0,1-7.8-5A13.3,13.3,0,0,1,34.62,14.29,13.43,13.43,0,0,1,37.21,32.81ZM26.54,14.35A10.5,10.5,0,1,0,37,24.84,10.56,10.56,0,0,0,26.54,14.35Z"/><path class="cls-2" d="M37.61,39.94,41.55,36a.19.19,0,0,1,.1,0c2.86,2.85,5.73,5.69,8.57,8.56a2.79,2.79,0,0,1-3.8,4.08,5.25,5.25,0,0,1-.42-.4Z"/><path class="cls-2" d="M19.88,19.89c-.14.3-.21.51-.32.69a8,8,0,0,0,0,8.52c.25.44.43.87-.09,1.2s-.86,0-1.1-.45a9.39,9.39,0,0,1,.06-10,1.33,1.33,0,0,1,.92-.47C19.49,19.32,19.7,19.69,19.88,19.89Z"/></g></g></svg>