<svg xmlns="http://www.w3.org/2000/svg" xmlns:xlink="http://www.w3.org/1999/xlink" viewBox="0 0 54.3 54.3"><defs><style>.cls-1{fill:#fff;}.cls-2{fill:url(#New_Gradient_Swatch);}</style><linearGradient id="New_Gradient_Swatch" x1="12.9" y1="27.15" x2="43.41" y2="27.15" gradientUnits="userSpaceOnUse"><stop offset="0" stop-color="#9e005d"/><stop offset="1" stop-color="#ed1e79"/></linearGradient></defs><g id="Layer_2" data-name="Layer 2"><g id="Layer_1-2" data-name="Layer 1"><circle class="cls-1" cx="27.15" cy="27.15" r="27.15"/><path class="cls-2" d="M32.31,27.15h-1c-1.61,0-3.22,0-4.82.1a14.63,14.63,0,0,0-4.14.82,6.69,6.69,0,0,0-4.59,5.56,20.62,20.62,0,0,0-.07,5.87l.09.73a.68.68,0,0,1-.43.74.67.67,0,0,1-.84-.26c-.35-.52-.68-1.06-1-1.6a21.27,21.27,0,0,1-2.23-5.21,13.84,13.84,0,0,1-.23-5A11.18,11.18,0,0,1,14.09,25a9.56,9.56,0,0,1,4.46-4.31A17.79,17.79,0,0,1,24,19.14a50.84,50.84,0,0,1,7.3-.32h.92l.1,0v-.24c0-1.31,0-2.61,0-3.91A1.35,1.35,0,0,1,34,13.33a1.48,1.48,0,0,1,.64.37q3.91,3.89,7.79,7.78L43,22a1.36,1.36,0,0,1,0,2l-2.87,2.88L34.7,32.25a1.35,1.35,0,0,1-1.53.34,1.28,1.28,0,0,1-.86-1.31V27.15Z"/></g></g></svg>