<svg xmlns="http://www.w3.org/2000/svg" xmlns:xlink="http://www.w3.org/1999/xlink" viewBox="0 0 54.3 54.3"><defs><style>.cls-1{fill:#fff;}.cls-2{fill:url(#linear-gradient);}.cls-3{fill:url(#linear-gradient-2);}</style><linearGradient id="linear-gradient" x1="-280.47" y1="-7320.72" x2="-254.96" y2="-7320.72" gradientTransform="matrix(1, 0, 0, -1, 294, -7289.6)" gradientUnits="userSpaceOnUse"><stop offset="0" stop-color="#9e005d"/><stop offset="1" stop-color="#ed1e79"/></linearGradient><linearGradient id="linear-gradient-2" x1="-281.98" y1="-7303.49" x2="-253.94" y2="-7303.49" xlink:href="#linear-gradient"/></defs><g id="Layer_2" data-name="Layer 2"><g id="Layer_1-2" data-name="Layer 1"><circle class="cls-1" cx="27.15" cy="27.15" r="27.15"/><path class="cls-2" d="M13.53,18.37H39c-1.37,8.5-2.75,17-4.12,25.5H17.67Q15.6,31.17,13.53,18.37Zm8.61,22.39c-.8-6.44-1.6-12.83-2.39-19.24h-1c.8,6.43,1.6,12.83,2.39,19.24Zm8.29,0a5.53,5.53,0,0,1,.58,0c.37.05.5-.1.53-.47.08-.94.21-1.88.33-2.8l1.8-14.45.18-1.52h-1C32,28,31.23,34.34,30.43,40.79Zm-3.65,0V21.52h-1V40.76Z"/><path class="cls-3" d="M22.59,13.49a5.41,5.41,0,0,1-.2-.85A1.69,1.69,0,0,1,24,10.85c1.08-.14,2.17-.26,3.24-.41a1.74,1.74,0,0,1,1.89,2.25L31,12.47l7.39-.91a1.37,1.37,0,0,1,1.64,1.18,1.39,1.39,0,0,1-1.34,1.52q-7.35.88-14.7,1.81L13.62,17.35A1.38,1.38,0,0,1,12,16.2a1.35,1.35,0,0,1,1.26-1.54l9-1.12Z"/></g></g></svg>